<?xml version="1.0" encoding="utf-8" ?>
<svg baseProfile="full" height="200mm" version="1.1" viewBox="0,0,200,200" width="200mm" xmlns="http://www.w3.org/2000/svg" xmlns:ev="http://www.w3.org/2001/xml-events" xmlns:xlink="http://www.w3.org/1999/xlink"><defs /><rect fill="#1a1a1a" height="200" width="200" x="0" y="0" /><text alignment-baseline="middle" fill="#e1ed5e" style="dominant-baseline: central; font-size:9.0px; font-family:Arial;" text-anchor="middle" x="100.0" y="100.0">2023</text><line stroke="#e1ed5e" stroke-width="0.3" x1="100.0" x2="100.0" y1="15.0" y2="10.0" /><path d="M 100.0 14.0 a86.0,86.0 0 0,1 42.46469731375804,11.215312516191453" fill="none" id="id37" stroke="none" /><text fill="#e1ed5e" style="font-size:6.75px; font-family:Arial;" text-anchor="middle"><textPath startOffset="22.20632615414155" xlink:href="#id37">January</textPath></text><path d="M 103.59715602781102 79.31037775812273 l 6.2518228346211755 -35.958365934481385 a57.49779951495106,57.49779951495106 0 0,0 0.973642763493517,0.17792699166051593 l -6.869860719217593 35.845423461470126" fill="#ff6509" stroke="none" /><path d="M 103.95276090670814 79.375362276772 l 6.614618816478707 -34.51362730682716 a56.141765066112995,56.141765066112995 0 0,0 0.9475489224397876,0.1900693997639724 l -7.20773414838562 34.39465395098598" fill="#ff3e05" stroke="none" /><path d="M 104.307194497241 79.44645832069477 l 7.19819602779216 -34.3491389041764 a56.09526135410488,56.09526135410488 0 0,0 0.9433547470338853,0.20618080939625028 l -7.788393498979573 34.22014459668428" fill="#ff3c05" stroke="none" /><path d="M 105.01212808612495 79.60689891045804 l 8.422110484950442 -34.267470335075515 a56.287270625340135,56.287270625340135 0 0,0 0.9389014562017686,0.2393468866988081 l -9.010720829837236 34.117420452207845" fill="#ff4206" stroke="none" /><path d="M 105.36241919743992 79.69619591428918 l 8.774252390033762 -33.222076634903225 a55.36122641785936,55.36122641785936 0 0,0 0.9192655479557915,0.25126999971356917 l -9.344815827213266 33.06612009436336" fill="#ff2703" stroke="none" /><path d="M 106.0581310904928 79.89281104454417 l 10.526626199303383 -34.93830999877351 a57.489661065982204,57.489661065982204 0 0,0 0.9450605675181037,0.2936349186469933 l -11.126472139532204 34.751934945244" fill="#ff6509" stroke="none" /><path d="M 106.40334571778207 80.00007090966166 l 10.20526111691046 -31.87466485212547 a54.46851675679171,54.46851675679171 0 0,0 0.8904751166468248,0.293575645563078 l -10.752419055799702 31.694275482303155" fill="#ff0c01" stroke="none" /><path d="M 107.08798089147638 80.2323363322302 l 11.158172587959662 -31.11901770657448 a54.05900903724717,54.05900903724717 0 0,0 0.8732272055549646,0.32161694927342965 l -11.692182119287203 30.922337489494723" fill="#ff0000" stroke="none" /><path d="M 108.09893153111575 80.62456947434976 l 13.268466603168669 -31.742736910900646 a55.40426648824324,55.40426648824324 0 0,0 0.8767494115122362,0.37537834232488465 l -13.81289977247122 31.50963904061297" fill="#ff2803" stroke="none" /><path d="M 109.08828744355905 81.06846463323043 l 14.587248814856729 -30.38625467750184 a54.70626501575844,54.70626501575844 0 0,0 0.8454168986740774,0.4148424005740903 l -15.108136980541238 30.130657116792914" fill="#ff1302" stroke="none" /><path d="M 109.41281617654863 81.2277094730956 l 15.055767281576184 -30.026214494591517 a54.589428177809125,54.589428177809125 0 0,0 0.8363607621303312,0.4284164667913975 l -15.570388531295272 29.76260550248762" fill="#ff1001" stroke="none" /><line stroke="#e1ed5e" stroke-width="0.3" x1="143.23703022742887" x2="145.7803849466894" y1="26.81831364943548" y2="22.513508569990506" /><path d="M 143.74570117128098 25.957352633546492 a86.0,86.0 0 0,1 28.547481713284135,27.462654790039103" fill="none" id="id38" stroke="none" /><text fill="#e1ed5e" style="font-size:6.75px; font-family:Arial;" text-anchor="middle"><textPath startOffset="19.985693538727396" xlink:href="#id38">February</textPath></text><line stroke="#e1ed5e" stroke-width="0.3" x1="172.23445277983987" x2="176.4835382374775" y1="55.19839476539836" y2="52.563006222186495" /><path d="M 173.08426987136738 54.67131705675599 a86.0,86.0 0 0,1 12.851231095245387,41.99856678651699" fill="none" id="id39" stroke="none" /><text fill="#e1ed5e" style="font-size:6.75px; font-family:Arial;" text-anchor="middle"><textPath startOffset="22.20632615414155" xlink:href="#id39">March</textPath></text><line stroke="#e1ed5e" stroke-width="0.3" x1="184.98032266829074" x2="189.97916517819016" y1="98.17113171792111" y2="98.06355123074" /><path d="M 185.9800911702706 98.14961562048488 a86.0,86.0 0 0,1 -9.607161424134198,41.387399972396054" fill="none" id="id40" stroke="none" /><text fill="#e1ed5e" style="font-size:6.75px; font-family:Arial;" text-anchor="middle"><textPath startOffset="21.466115282336823" xlink:href="#id40">April</textPath></text><line stroke="#e1ed5e" stroke-width="0.3" x1="174.80103733775053" x2="179.2010983576182" y1="140.37084112569926" y2="142.7455964860345" /><path d="M 175.68104954172406 140.8457921977663 a86.0,86.0 0 0,1 -30.038265399797805,32.042727171017184" fill="none" id="id41" stroke="none" /><text fill="#e1ed5e" style="font-size:6.75px; font-family:Arial;" text-anchor="middle"><textPath startOffset="22.206326154141568" xlink:href="#id41">May</textPath></text><path d="M 112.34349029814194 116.9893568818739 l 27.19999785091288 37.43758527885125 a67.27540031810557,67.27540031810557 0 0,0 -0.942729134364044,0.6726122063577857 l -26.55154138869995 -37.90024174705325" fill="#9fff22" stroke="none" /><path d="M 112.04921762599082 117.19931262002967 l 23.32844607023883 33.29952610666258 a61.658023008753695,61.658023008753695 0 0,0 -0.8744960790914831,0.6014863772800954 l -22.751793106524463 -33.69615327330778" fill="#ffd614" stroke="none" /><path d="M 111.45004920935366 117.60387380957326 l 22.546136694968443 34.66354930137612 a62.35081534912142,62.35081534912142 0 0,0 -0.9047346711470889,0.5774444731654881 l -21.946120221774425 -35.04650820336541" fill="#ffe815" stroke="none" /><line stroke="#e1ed5e" stroke-width="0.3" x1="143.8653032363475" x2="146.44561519142675" y1="172.8068346515853" y2="177.08958963109032" /><path d="M 144.38136562736335 173.6633856474863 a86.0,86.0 0 0,1 -40.68145358897372,12.25698825130547" fill="none" id="id42" stroke="none" /><text fill="#e1ed5e" style="font-size:6.75px; font-family:Arial;" text-anchor="middle"><textPath startOffset="21.466115282336833" xlink:href="#id42">June</textPath></text><path d="M 110.5260780823613 118.17145234162733 l 22.75128415146803 39.2761551296112 a66.38983688344919,66.38983688344919 0 0,0 -0.9937965280101291,0.5643036051003186 l -22.071838856536704 -39.66196190050615" fill="#b3ff20" stroke="none" /><path d="M 110.21172684928248 118.3499491758327 l 20.93554149437237 37.62009384507404 a64.05308767759595,64.05308767759595 0 0,0 -0.9680470884879195,0.5278564574409063 l -20.2848715940158 -37.97489095427471" fill="#ebff1a" stroke="none" /><path d="M 109.2508944713604 118.85261126421891 l 19.01577611436419 38.75268884337497 a64.16677696820858,64.16677696820858 0 0,0 -0.99576855948541,0.47802942130870274 l -18.345894886878547 -39.074272541183234" fill="#e9ff1a" stroke="none" /><path d="M 108.2653958097858 119.30500536409082 l 17.352978145277582 40.530344085991935 a65.08894013513347,65.08894013513347 0 0,0 -1.0337628193394377,0.43211294232453207 l -16.652743866440684 -40.82304207133644" fill="#d2ff1c" stroke="none" /><path d="M 107.93186726928326 119.44442032107085 l 17.046349180387377 41.7879380920534 a66.13102913035533,66.13102913035533 0 0,0 -1.057715185930845,0.42088670123553196 l -16.324512918414666 -42.07517163769501" fill="#b9ff1f" stroke="none" /><path d="M 104.83641907484287 120.43548508189849 l 10.227604771500845 43.2150443328466 a65.4088274563957,65.4088274563957 0 0,0 -1.097871130010401,0.249871894828843 l -9.482213492097582 -43.38469296125313" fill="#caff1d" stroke="none" /><path d="M 102.70371172650421 120.8252237178851 l 5.730261863092929 44.137096455645214 a65.50751829246994,65.50751829246994 0 0,0 -1.1194691380536919,0.13555212247208018 l -4.969665301987857 -44.22919410684264" fill="#c8ff1d" stroke="none" /><path d="M 102.34483914955558 120.86867818915974 l 4.939126367585325 43.9574026731287 a65.23401653753092,65.23401653753092 0 0,0 -1.1169536161612936,0.11577680926291799 l -4.181740154818429 -44.03590885084738" fill="#cfff1d" stroke="none" /><path d="M 101.98527174616119 120.90594882070398 l 4.103265779168905 43.20953267124479 a64.40392267666448,64.40392267666448 0 0,0 -1.1045447005588138,0.09530476444592828 l -3.358876760868549 -43.273761687969376" fill="#e3ff1b" stroke="none" /><path d="M 101.62511606390274 120.93702456842531 l 3.4073210989888336 43.89788960101806 a65.0299278729228,65.0299278729228 0 0,0 -1.1167720788017221,0.07701914105648384 l -2.651186259408181 -43.95003708659083" fill="#d3ff1c" stroke="none" /><path d="M 100.90346689309514 120.98055641714683 l 1.5624221742145068 36.28299700192403 a57.31662201378462,57.31662201378462 0 0,0 -0.986063287825571,0.03396201339299583 l -0.9376385347142836 -36.30451581374312" fill="#ff6008" stroke="none" /><line stroke="#e1ed5e" stroke-width="0.3" x1="102.19456741930631" x2="102.32365962044197" y1="184.97166512339345" y2="189.96999836594603" /><path d="M 102.22038585953345 185.97133177190398 a86.0,86.0 0 0,1 -42.740103519485714,-10.115201625700543" fill="none" id="id43" stroke="none" /><text fill="#e1ed5e" style="font-size:6.75px; font-family:Arial;" text-anchor="middle"><textPath startOffset="22.20632615414155" xlink:href="#id43">July</textPath></text><path d="M 100.18074693466247 120.99922214144158 l 0.3705479854909683 43.05035366668661 a64.05194834889994,64.05194834889994 0 0,0 -1.102589840306818,0.0 l 0.37054798549093865 -43.05035366668661" fill="#ebff1a" stroke="none" /><path d="M 99.81925306533755 120.99922214144158 l -0.37121823537628185 43.12822345882932 a64.12982102551541,64.12982102551541 0 0,0 -1.1037667808852378,-0.019002346114985438 l 1.1135447061541874 -43.11544363543517" fill="#e9ff1a" stroke="none" /><path d="M 99.45781275523022 120.99299961872073 l -1.6265617343093406 62.97899885616221 a84.0,84.0 0 0,0 -1.445118593301428,-0.04977280629562486 l 2.7104006792854114 -62.94166925144049" fill="#4dd2ff" stroke="none" /><path d="M 99.09653310690486 120.98055641714683 l -2.675620224447717 62.13398797334032 a83.1915702089654,83.1915702089654 0 0,0 -1.4301499739454024,-0.07392241789786393 l 3.7447582668066084 -62.07872574868025" fill="#4be1ff" stroke="none" /><path d="M 98.37488393609728 120.93702456842531 l -3.3718322848680824 43.440672919911954 a64.5713359525738,64.5713359525738 0 0,0 -1.1074158835399683,-0.09555250219485023 l 4.119092486149593 -43.376196165438444" fill="#dfff1b" stroke="none" /><path d="M 98.01472825383883 120.90594882070398 l -4.100879080881007 43.18439949118864 a64.37867642806292,64.37867642806292 0 0,0 -1.102308262724156,-0.11425875849791116 l 4.843619940210756 -43.10741136423497" fill="#e3ff1b" stroke="none" /><path d="M 97.65516085044442 120.86867818915974 l -6.9029174146148335 61.434816166066746 a82.821411389513,82.821411389513 0 0,0 -1.4153492062797879,-0.17137907819769904 l 7.959394043946011 -61.30689155914369" fill="#4ae8ff" stroke="none" /><path d="M 96.93821686468263 120.77559828337769 l -6.314960100897738 42.84989120178517 a64.31272211580284,64.31272211580284 0 0,0 -1.0938189454036258,-0.1708320237492718 l 7.0516149099098815 -42.73484087068879" fill="#e5ff1a" stroke="none" /><path d="M 96.58105272829116 120.7198165907248 l -7.942292456825396 48.13260630751643 a69.78347875484195,69.78347875484195 0 0,0 -1.1834979872759672,-0.2057662952499514 l 8.769639415573414 -47.98876143374547" fill="#67ff28" stroke="none" /><path d="M 96.22490169976321 120.6578951692458 l -7.745580695194973 42.38496094690706 a64.086876595741,64.086876595741 0 0,0 -1.0834722224969207,-0.20765003012715263 l 8.474020532263589 -42.24535371843144" fill="#ebff1a" stroke="none" /><path d="M 95.51606077576429 120.51570834832081 l -9.325865033741367 42.669339962040304 a64.67658790958527,64.67658790958527 0 0,0 -1.0855806687690477,-0.24707462586461063 l 10.058965851903277 -42.50248860259801" fill="#dcff1b" stroke="none" /><path d="M 93.08242187328487 119.8279376855182 l -14.471173764346174 41.47890003983441 a64.93078668351474,64.93078668351474 0 0,0 -1.0521274581582805,-0.37725547359359984 l 15.183020783134182 -41.22365702520085" fill="#d6ff1c" stroke="none" /><path d="M 92.7421414339146 119.70592522655815 l -14.409510147619587 39.12348620944198 a62.69269907159704,62.69269907159704 0 0,0 -1.0094413570010057,-0.38168434675437773 l 15.080821725380876 -38.86965361258097" fill="#fff116" stroke="none" /><path d="M 92.40401165467489 119.57807347666478 l -15.682430895533424 40.42025479863081 a64.35591812866403,64.35591812866403 0 0,0 -1.029323644352093,-0.4095891209067035 l 16.375875615927374 -40.14431883331804" fill="#e4ff1a" stroke="none" /><path d="M 91.7346041902142 119.30500536409082 l -17.572568268814294 41.04322799504308 a65.64685565429247,65.64685565429247 0 0,0 -1.0349674609935076,-0.4536993200095406 l 18.276456404465545 -40.73466412173909" fill="#c5ff1e" stroke="none" /><line stroke="#e1ed5e" stroke-width="0.3" x1="58.666819895761336" x2="56.23545636021788" y1="174.27360380694188" y2="178.64263932499728" /><path d="M 58.180547188652646 175.14741091055294 a86.0,86.0 0 0,1 -31.652253787137756,-30.449443065178592" fill="none" id="id44" stroke="none" /><text fill="#e1ed5e" style="font-size:6.75px; font-family:Arial;" text-anchor="middle"><textPath startOffset="22.20632615414155" xlink:href="#id44">August</textPath></text><line stroke="#e1ed5e" stroke-width="0.3" x1="26.63291911575756" x2="22.317208475507996" y1="142.92168965132927" y2="145.44649492493687" /><path d="M 25.769776987707644 143.4266507060508 a86.0,86.0 0 0,1 -11.730757126820373,-40.83630448921669" fill="none" id="id45" stroke="none" /><text fill="#e1ed5e" style="font-size:6.75px; font-family:Arial;" text-anchor="middle"><textPath startOffset="21.46611528233685" xlink:href="#id45">September</textPath></text><line stroke="#e1ed5e" stroke-width="0.3" x1="15.007084014347285" x2="10.007500721073583" y1="101.09737516637583" y2="101.16192664675087" /><path d="M 14.007167355692545 101.11028546245083 a86.0,86.0 0 0,1 10.666146001902534,-42.60595125391555" fill="none" id="id46" stroke="none" /><text fill="#e1ed5e" style="font-size:6.75px; font-family:Arial;" text-anchor="middle"><textPath startOffset="22.20632615414155" xlink:href="#id46">October</textPath></text><line stroke="#e1ed5e" stroke-width="0.3" x1="26.266209847984257" x2="21.92892807433627" y1="57.711370442889674" y2="55.22380399835377" /><path d="M 25.39875349325466 57.213857153982495 a86.0,86.0 0 0,1 29.58750427330802,-30.492523968695096" fill="none" id="id47" stroke="none" /><text fill="#e1ed5e" style="font-size:6.75px; font-family:Arial;" text-anchor="middle"><textPath startOffset="21.46611528233685" xlink:href="#id47">November</textPath></text><line stroke="#e1ed5e" stroke-width="0.3" x1="56.762969772571076" x2="54.21961505331055" y1="26.818313649435495" y2="22.513508569990535" /><path d="M 56.25429882871897 25.957352633546506 a86.0,86.0 0 0,1 42.265352541879196,-11.944610805530505" fill="none" id="id48" stroke="none" /><text fill="#e1ed5e" style="font-size:6.75px; font-family:Arial;" text-anchor="middle"><textPath startOffset="22.20632615414155" xlink:href="#id48">December</textPath></text></svg>